<svg width="401" height="453" viewBox="0 0 401 453" fill="none" xmlns="http://www.w3.org/2000/svg">
<g clip-path="url(#clip0_64_1138)">
<path d="M395.057 326.978L198.605 448.757L200.987 233.016L397.317 121.592L395.057 326.978Z" fill="white" stroke="url(#paint0_linear_64_1138)" stroke-width="4.27844" stroke-miterlimit="10"/>
<path d="M2.15332 329.681L194.241 449.199L198.591 233.288L5.26945 117.321L2.15332 329.681Z" fill="white" stroke="url(#paint1_linear_64_1138)" stroke-width="4.27844" stroke-miterlimit="10"/>
<path d="M203.384 3.35693L7.30322 113.505L201.373 230.442L396.399 119.16L203.384 3.35693Z" fill="#272583" stroke="url(#paint2_linear_64_1138)" stroke-width="4.27844" stroke-miterlimit="10"/>
<path d="M4.30713 328.505L192.223 445.435V444.65L4.31426 328.177L4.30713 328.505Z" fill="#444545"/>
<path d="M392.954 325.795L200.873 444.693V443.908L392.954 325.253V325.795Z" fill="#444545"/>
<path d="M179.223 110.641H174.116V107.178C175.508 107.178 176.618 107.059 177.447 106.823C178.305 106.586 178.986 106.201 179.489 105.668C179.992 105.106 180.436 104.306 180.821 103.27H184.107V134.352H179.223V110.641ZM197.223 134.796C194.766 134.796 192.872 134.145 191.539 132.842C190.237 131.51 189.586 129.601 189.586 127.114V124.362C189.586 122.822 189.837 121.535 190.341 120.499C190.844 119.433 191.658 118.604 192.783 118.012V117.923C191.747 117.361 190.977 116.591 190.474 115.614C190 114.608 189.763 113.335 189.763 111.796V110.508C189.763 108.021 190.4 106.127 191.673 104.824C192.975 103.492 194.825 102.826 197.223 102.826C199.621 102.826 201.456 103.492 202.729 104.824C204.031 106.127 204.683 108.021 204.683 110.508V111.796C204.683 114.756 203.676 116.798 201.663 117.923V118.012C202.788 118.604 203.602 119.433 204.105 120.499C204.609 121.535 204.86 122.822 204.86 124.362V127.114C204.86 129.601 204.194 131.51 202.862 132.842C201.56 134.145 199.68 134.796 197.223 134.796ZM197.223 115.925C198.94 115.925 199.798 114.889 199.798 112.817V110.375C199.798 108.303 198.94 107.267 197.223 107.267C195.506 107.267 194.648 108.303 194.648 110.375V112.817C194.648 114.889 195.506 115.925 197.223 115.925ZM197.223 130.356C199.058 130.356 199.976 129.187 199.976 126.848V123.873C199.976 121.535 199.058 120.365 197.223 120.365C195.388 120.365 194.47 121.535 194.47 123.873V126.848C194.47 129.187 195.388 130.356 197.223 130.356ZM212.381 120.543C210.842 120.543 209.673 120.114 208.874 119.255C208.074 118.397 207.675 117.168 207.675 115.57V107.799C207.675 106.201 208.074 104.973 208.874 104.114C209.673 103.256 210.842 102.826 212.381 102.826C213.921 102.826 215.09 103.256 215.889 104.114C216.689 104.973 217.088 106.201 217.088 107.799V115.57C217.088 117.168 216.689 118.397 215.889 119.255C215.09 120.114 213.921 120.543 212.381 120.543ZM223.66 103.27H226.768L214.735 134.352H211.627L223.66 103.27ZM212.381 117.746C213.447 117.746 213.98 117.094 213.98 115.792V107.577C213.98 106.275 213.447 105.624 212.381 105.624C211.316 105.624 210.783 106.275 210.783 107.577V115.792C210.783 117.094 211.316 117.746 212.381 117.746ZM226.013 134.796C224.474 134.796 223.304 134.367 222.505 133.508C221.706 132.65 221.306 131.421 221.306 129.823V122.053C221.306 120.454 221.706 119.226 222.505 118.367C223.304 117.509 224.474 117.08 226.013 117.08C227.552 117.08 228.722 117.509 229.521 118.367C230.32 119.226 230.72 120.454 230.72 122.053V129.823C230.72 131.421 230.32 132.65 229.521 133.508C228.722 134.367 227.552 134.796 226.013 134.796ZM226.013 131.999C227.079 131.999 227.611 131.347 227.611 130.045V121.831C227.611 120.528 227.079 119.877 226.013 119.877C224.947 119.877 224.415 120.528 224.415 121.831V130.045C224.415 131.347 224.947 131.999 226.013 131.999Z" fill="white"/>
</g>
<defs>
<linearGradient id="paint0_linear_64_1138" x1="196.423" y1="285.263" x2="399.499" y2="285.263" gradientUnits="userSpaceOnUse">
<stop stop-color="#7AC9E4"/>
<stop offset="1" stop-color="#403988"/>
</linearGradient>
<linearGradient id="paint1_linear_64_1138" x1="-0.000161143" y1="283.289" x2="200.751" y2="283.289" gradientUnits="userSpaceOnUse">
<stop stop-color="#7AC9E4"/>
<stop offset="1" stop-color="#403988"/>
</linearGradient>
<linearGradient id="paint2_linear_64_1138" x1="3.04617" y1="116.9" x2="400.635" y2="116.9" gradientUnits="userSpaceOnUse">
<stop stop-color="#7AC9E4"/>
<stop offset="1" stop-color="#403988"/>
</linearGradient>
<clipPath id="clip0_64_1138">
<rect width="400.633" height="452.117" fill="white" transform="translate(0 0.883057)"/>
</clipPath>
</defs>
</svg>
