<svg width="285" height="621" viewBox="0 0 285 621" fill="none" xmlns="http://www.w3.org/2000/svg">
<g clip-path="url(#clip0_64_1035)">
<path d="M269.454 224.54C241.36 225.853 213.418 230.966 185.85 236.286C163.629 233.37 117.985 222.799 100.173 221.776C113.895 219.372 127.811 218.598 141.629 216.94C144.117 216.636 146.59 215.737 149.23 216.249C167.36 211.937 183.887 211.716 201.396 213.485C208.14 214.162 215.325 215.392 222.124 216.249C222.677 216.318 222.262 217.561 222.815 217.631C231.01 218.197 265.598 221.928 269.108 223.158C269.647 223.352 269.454 224.084 269.454 224.54Z" fill="#EBB385"/>
<path d="M284.655 226.613C270.712 229.017 191.322 237.35 186.541 239.741L185.85 236.286C213.419 230.966 241.36 225.853 269.454 224.54C274.609 224.305 279.791 223.282 285 223.849L284.655 226.613Z" fill="#483429"/>
<path d="M284.654 226.613C284.018 248.46 285.165 342.221 283.963 350.637C283.908 351.065 282.623 352.254 282.581 352.364C249.582 359.163 216.955 369.32 183.776 375.165L184.467 240.777C185.407 239.395 186.347 239.837 186.54 239.741C191.321 237.35 270.711 229.017 284.654 226.613Z" fill="#EBB385"/>
<path d="M282.582 352.364C282.457 352.751 284.046 353.801 282.927 355.128C265.501 357.975 193.878 377.376 186.886 377.929C182.602 378.275 176.397 377.653 172.722 375.165C175.817 375.594 178.526 375.497 181.358 377.238C182.74 377.404 182.975 375.87 183.086 375.856C184.026 375.718 183.735 375.179 183.777 375.165C216.956 369.32 249.582 359.163 282.582 352.364Z" fill="#6E4D3E"/>
<path d="M100.173 221.776C117.985 222.799 163.629 233.37 185.85 236.286L186.541 239.741C186.347 239.837 185.408 239.395 184.468 240.777L183.777 375.165C183.777 375.165 184.026 375.718 183.086 375.856C168.59 371.407 153.914 367.537 138.866 365.492C134.444 360.808 130.795 355.543 127.12 350.292C125.365 347.79 124.549 337.758 112.61 342C99.3575 337.537 101.638 339.195 89.4632 330.945C89.3665 330.89 87.4733 331.705 87.3904 331.636C87.0588 331.387 86.4507 329.632 86.354 329.563C86.7824 329.605 87.6806 328.748 87.7359 328.527C88.8829 323.345 87.7912 239.865 89.1178 222.467L89.4632 221.085C93.0147 222.025 96.5938 221.569 100.173 221.776Z" fill="#955F3B"/>
<path d="M151.303 85.6604C153.79 86.4757 155.849 87.291 157.521 89.4606C158.751 91.0636 162.938 102.091 159.594 101.552C157.452 101.386 157.258 100.93 156.83 100.861C155.338 97.3788 141.298 89.9719 140.938 88.0787C139.971 82.8966 148.677 84.8036 151.303 85.6604Z" fill="#15151D"/>
<path d="M60.0983 207.957C61.9224 208.938 76.1558 224.222 84.2813 223.849C84.6544 223.835 87.3214 222.674 89.1179 222.467C87.7912 239.865 88.8829 323.345 87.736 328.527C87.6807 328.748 86.7825 329.605 86.3541 329.563C80.3567 324.782 63.3457 307.066 58.0254 300.544C67.0906 273.887 60.0706 258.368 55.2617 232.486C53.7416 239.45 53.7554 285.744 51.4615 288.107C50.66 288.3 50.4665 287.623 49.7341 287.416C49.5407 287.36 50.3007 285.978 45.934 286.034C45.0081 286.034 30.0561 288.342 27.624 288.798C27.5134 287.208 27.7898 285.536 27.624 283.961C25.1366 260.234 14.5375 232.03 35.9153 213.485C42.5069 209.629 53.0921 204.185 60.0983 207.957Z" fill="#F0E9E0"/>
<path d="M138.175 369.638C137.428 372.941 140.137 378.371 136.102 380.693C135.687 380.928 134.057 380.458 133.338 380.693C116.258 386.234 79.6519 384.7 61.1346 382.766C55.2202 382.144 41.3322 378.689 37.988 378.62C31.963 373.466 35.2657 371.476 35.2243 371.02C44.9942 373.507 85.4558 372.028 91.5361 367.565C99.095 362.01 65.681 362.977 52.4978 360.656C51.9313 359.522 54.5154 358.652 54.9161 358.583C65.5705 356.855 76.5288 356.482 87.045 353.746C95.6679 358.348 104.042 364.47 113.646 366.874C121.979 368.961 129.925 368.477 138.175 369.638Z" fill="#F0E9E0"/>
<path d="M52.4978 360.656C65.681 362.977 99.095 362.01 91.5361 367.565C85.4558 372.028 44.9942 373.507 35.2243 371.02C34.865 367.468 35.0999 365.492 35.2243 362.037L50.0795 357.892C51.185 358.527 51.0607 360.407 52.4978 360.656Z" fill="#C2CED4"/>
<path d="M35.9153 213.485C14.5375 232.03 25.1366 260.234 27.624 283.961C23.1467 285.066 15.8503 287.153 15.187 284.306C16.6933 258.935 10.3781 228.423 35.9153 213.485Z" fill="#9DC1D2"/>
<path d="M66.3167 342L35.2243 347.528C35.0723 339.278 33.9115 330.945 34.5333 322.654C41.5257 329.466 57.4174 336.79 66.3167 342Z" fill="#9DC1D2"/>
<path d="M127.811 196.211C126.001 200.233 145.25 209.698 149.23 216.249C146.591 215.737 144.117 216.636 141.63 216.94C130.16 209.947 116.604 206.313 103.628 203.121C103.808 202.609 103.476 201.642 103.628 201.048C103.808 200.343 104.651 199.887 104.319 198.284C110.911 199.459 121.454 198.215 127.811 196.211Z" fill="#F9F9FA"/>
<path d="M82.8993 350.982C71.6508 353.953 55.8835 350.402 40.0609 353.055C29.1716 352.309 35.2519 348.647 35.2243 347.528L66.3167 342C71.6232 345.109 77.4547 348.08 82.8993 350.982Z" fill="#D1CECD"/>
<path d="M87.0446 353.746C76.5285 356.482 65.5701 356.855 54.9158 358.583C54.515 358.652 51.9309 359.522 52.4975 360.656C51.0603 360.407 51.1847 358.527 50.0792 357.892L35.2239 362.037C35.2377 361.637 33.842 356.551 34.533 354.092C35.3068 352.337 38.5957 353.304 40.0605 353.055C55.8831 350.402 71.6504 353.953 82.899 350.982C84.3085 351.729 85.6489 353 87.0446 353.746Z" fill="#9DC1D2"/>
<path d="M73.917 208.648C74.9949 209.477 75.216 209.975 75.2989 210.03C75.9069 210.458 77.2059 212.739 78.4081 213.485C83.4382 216.58 95.4744 216.166 84.2811 223.849C76.1556 224.222 61.9222 208.938 60.0981 207.957C65.8053 200.053 68.0993 204.171 73.917 208.648Z" fill="#C2CED4"/>
<path d="M141.629 216.94C127.81 218.598 113.895 219.372 100.173 221.776C96.5937 221.569 93.0146 222.025 89.4631 221.085L89.1177 222.467C87.3212 222.674 84.6542 223.835 84.2811 223.849C95.4744 216.166 83.4381 216.58 78.4081 213.485C77.2058 212.739 75.9069 210.458 75.2988 210.03C85.5939 218.46 99.1087 216.442 103.627 203.121C116.603 206.313 130.16 209.947 141.629 216.94Z" fill="#E0E5E7"/>
<path d="M58.0252 300.544C55.1923 297.061 50.5768 292.404 49.7339 288.107V287.416C50.4663 287.623 50.6597 288.3 51.4612 288.107C53.7552 285.744 53.7414 239.45 55.2614 232.486C60.0704 258.368 67.0904 273.887 58.0252 300.544Z" fill="#C2CED4"/>
<path d="M90.4998 96.7155C84.9861 98.0283 79.3756 98.8712 73.9172 100.17C70.9047 100.889 68.9977 100.723 68.3896 100.861C72.8255 81.9984 99.717 81.7082 105.355 87.7332C111.905 94.7255 98.6529 94.767 90.4998 96.7155Z" fill="#15151D"/>
<path d="M37.9878 378.62C41.332 378.689 55.2199 382.144 61.1344 382.766C79.6517 384.7 116.258 386.234 133.338 380.693C129.621 386.884 132.191 387.575 124.01 394.512C106.668 409.229 79.6931 411.689 75.6442 414.549C69.6744 418.778 70.241 439.768 68.3893 450.824C65.7499 466.632 61.7424 482.109 58.7161 497.808C57.0717 506.334 57.0164 515.593 55.2614 524.063C52.4147 537.813 47.8407 550.969 44.2063 564.484C34.3949 566.791 25.7581 566.128 23.478 566.556C38.817 504.897 34.7818 441.206 35.2241 378.275C35.4866 377.805 35.8735 378.579 37.9878 378.62Z" fill="url(#paint0_linear_64_1035)"/>
<path d="M136.101 380.693C136.571 381.536 136.696 381.743 136.792 382.766C134.471 387.74 133.49 393.227 130.574 397.966C125.392 406.368 117.335 409.45 108.464 412.476C103.517 414.162 94.866 415.807 89.4628 416.622L87.7354 418.695C82.3461 468.816 65.3765 515.592 49.7336 563.102C47.7851 563.129 46.0578 564.041 44.2061 564.484C47.8404 550.969 52.4145 537.813 55.2611 524.063C57.0161 515.592 57.0714 506.334 58.7159 497.808C61.7422 482.109 65.7496 466.632 68.389 450.823C70.2408 439.768 69.6742 418.778 75.6439 414.549C79.6929 411.688 106.667 409.229 124.01 394.512C132.191 387.575 129.62 386.884 133.338 380.693C134.056 380.458 135.687 380.928 136.101 380.693Z" fill="#046DA1"/>
<path d="M49.7343 563.102C48.6149 566.501 49.7204 569.113 47.6614 572.084C42.1754 580.016 28.9369 575.608 21.4056 575.539C21.4333 575.096 20.5903 574.875 20.7147 572.775C20.8252 570.826 20.6318 568.85 20.7147 566.902C21.1292 566.197 22.7184 566.695 23.4784 566.556C25.7586 566.128 34.3953 566.791 44.2067 564.484C46.0584 564.041 47.7858 563.129 49.7343 563.102Z" fill="#F9F9FA"/>
<path d="M145.084 585.903C155.89 586.842 171.464 587.008 182.049 585.212C185.905 584.562 186.955 582.531 187.231 582.448C187.604 582.338 188.268 583.526 189.995 583.139C191.639 586.013 196.227 589.247 193.45 593.158C189.884 598.16 146.852 595.313 138.865 594.194C129.22 592.84 122.061 590.021 118.137 589.358C111.739 584.41 117.957 580.237 118.137 579.684C125.115 583.802 136.875 585.198 145.084 585.903Z" fill="#F9F9FA"/>
<path d="M158.211 565.174C159.828 565.658 165.991 569.818 169.612 571.393C175.181 573.825 187.936 574.571 187.231 582.448C186.955 582.531 185.904 584.562 182.049 585.212C171.464 587.008 155.89 586.842 145.084 585.903C144.849 585.087 146.673 585.143 146.465 584.866C145.484 583.526 143.37 586.649 146.465 576.575C149.34 567.22 152.283 563.378 158.211 565.174Z" fill="#102346"/>
<path d="M154.066 558.956C158.239 559.854 155.71 562.563 158.212 565.175C152.283 563.378 149.34 567.22 146.466 576.575C143.37 586.649 145.484 583.526 146.466 584.866C146.673 585.143 144.849 585.087 145.084 585.903C136.875 585.198 125.115 583.802 118.137 579.684C118.206 579.477 118.068 579.201 118.137 578.993C118.317 578.468 117.943 577.377 118.137 576.921C119.685 573.203 121.716 568.795 125.046 566.556C127.52 567.731 136.82 567.026 140.593 567.247C144.78 566.169 144.296 556.842 154.066 558.956Z" fill="#102346"/>
<path d="M154.066 558.956C144.296 556.842 144.78 566.169 140.593 567.247C136.82 567.026 127.52 567.731 125.046 566.556C119.353 563.862 124.977 558.113 125.046 557.574C129.427 557.574 135.41 557.519 139.556 556.192C140.523 555.888 141.629 555.501 142.665 555.501C143.246 555.142 144.697 553.373 145.084 552.738C149.602 553.415 157.728 556.69 154.066 558.956Z" fill="#F9F9FA"/>
<path d="M64.9347 599.722C66.4962 603.701 64.8932 604.807 64.9347 605.249C55.1371 611.468 33.3033 608.607 22.4417 605.249C20.2169 604.558 20.8387 603.218 20.7144 603.176C22.953 604.724 23.4229 591.168 26.2419 585.212C33.635 585.474 41.3874 587.243 48.3521 583.83C50.8809 588.224 62.5026 593.517 64.9347 599.722Z" fill="#102346"/>
<path d="M20.7144 603.176C20.8387 603.218 20.2169 604.558 22.4417 605.249C33.3033 608.607 55.1371 611.468 64.9347 605.249C65.2387 608.621 67.4912 618.419 63.2073 619.759C58.3845 621.279 26.4768 619.8 15.8778 610.086C15.1592 609.436 12.1605 605.982 11.7321 605.249C10.1429 602.554 9.23089 601.103 9.65927 598.34C14.2471 603.771 20.1201 602.969 20.7144 603.176Z" fill="#F9F9FA"/>
<path d="M47.6612 576.23C47.1361 580.527 46.1273 579.947 48.3521 583.83C41.3874 587.243 33.635 585.474 26.2419 585.212C22.9669 585.087 22.3036 584.258 19.3325 585.903C20.8802 582.641 21.1566 579.021 21.4053 575.539C28.9366 575.608 42.1751 580.016 47.6612 572.084C48.2277 573.134 47.827 574.848 47.6612 576.23Z" fill="#10172B"/>
<path d="M26.2418 585.212C23.4228 591.168 22.9529 604.724 20.7143 603.176C20.1201 602.969 14.247 603.77 9.65918 598.34C10.2672 594.374 12.879 593.213 15.1867 590.048C15.9329 589.026 18.3927 587.865 19.3324 585.903C22.3034 584.258 22.9667 585.087 26.2418 585.212Z" fill="#102346"/>
<path d="M145.084 552.738C144.697 553.373 143.246 555.142 142.666 555.501C141.629 555.501 140.524 555.888 139.556 556.192L137.484 554.81C143.757 549.504 149.368 502.243 149.23 492.28C149.147 486.78 144.973 454.637 143.702 447.369C142.859 442.546 134.139 403.964 133.338 401.767C133.255 401.545 131.113 398.795 130.574 397.966C133.49 393.226 134.471 387.74 136.793 382.766C138.741 404.682 152.919 447.507 154.066 486.062C154.453 499.037 151.123 542.733 145.084 552.738Z" fill="#315E7A"/>
<path d="M137.483 554.81C136.406 555.722 132.909 556.344 131.956 555.156C131.445 554.52 135.231 541.42 135.411 539.264C137.981 507.757 126.442 476.706 117.446 447.023C114.102 435.968 108.837 423.669 108.464 412.476C117.336 409.45 125.392 406.368 130.574 397.966C131.113 398.796 133.255 401.545 133.338 401.767C134.139 403.964 142.859 442.546 143.702 447.369C144.973 454.637 149.147 486.78 149.229 492.28C149.368 502.243 143.757 549.504 137.483 554.81Z" fill="#102346"/>
<path d="M108.464 412.476C108.837 423.669 114.102 435.968 117.446 447.023C112.914 453.629 123.554 450.533 110.537 460.151C103.849 445.849 94.3136 433.066 87.7358 418.695L89.4632 416.622C94.8664 415.807 103.517 414.162 108.464 412.476Z" fill="#10172B"/>
<path d="M137.483 554.81L139.556 556.192C135.411 557.519 129.427 557.588 125.046 557.574C129.372 523.856 124.922 490.926 110.537 460.151C123.554 450.533 112.913 453.629 117.446 447.023C126.442 476.706 137.981 507.757 135.411 539.264C135.231 541.42 131.445 554.52 131.956 555.156C132.909 556.344 136.406 555.722 137.483 554.81Z" fill="#102346"/>
<path d="M112.61 8.27483C109.749 9.26979 107.317 10.7622 105.355 13.1114C100.477 10.9142 91.3703 9.69818 87.045 13.1114C84.1016 6.60275 75.5478 9.80873 72.1898 14.4933C63.1523 9.79491 58.6611 10.1127 51.807 17.2571C51.7241 17.3538 50.2178 16.884 49.7341 18.639C43.0458 17.1465 33.8563 21.0711 33.8425 28.3122L33.1515 29.0031C28.7986 28.6853 20.8804 32.0156 20.0236 36.6035C19.1116 36.3271 19.0978 35.194 18.6417 34.5306C7.80775 18.7633 24.8049 11.3703 38.3336 17.948C42.5898 17.4782 42.7142 0.0249783 58.3709 5.51106C60.1397 6.13291 61.798 8.3992 63.2075 9.65672C68.1409 1.29631 78.2286 2.37418 85.3177 7.58389C92.0889 0.204623 108.285 -3.44355 112.61 8.27483Z" fill="#15151D"/>
<path d="M133.338 17.948C136.019 22.909 133.546 25.272 132.647 30.385C132.44 30.4955 132.177 32.1262 129.538 33.8397C126.719 16.58 119.271 21.8588 116.41 21.4027C113.923 21.0158 108.16 15.3639 100.864 24.8574C92.9319 15.9028 82.6369 25.9491 84.2813 16.9116C84.3366 16.6076 86.6996 13.3878 87.0451 13.1114C91.3704 9.69817 100.477 10.9142 105.355 13.1114C107.317 10.7622 109.749 9.26979 112.61 8.27483C112.817 8.20573 113.094 8.34392 113.301 8.27483C113.854 15.6265 116.548 9.58762 124.01 11.0386C125.945 11.4117 132.205 15.8614 133.338 17.948Z" fill="#3C1932"/>
<path d="M136.102 16.5662L133.339 17.9481C132.205 15.8614 125.946 11.4117 124.011 11.0386C116.549 9.58765 113.854 15.6265 113.301 8.27486C130.077 2.5124 131.777 11.3841 136.102 16.5662Z" fill="#211624"/>
<path d="M136.102 16.5662C137.139 17.796 137.954 19.855 138.52 20.0209C142.638 18.6804 146.784 19.5649 150.612 21.4028C138.424 18.6252 146.909 25.5899 144.048 27.6212C143.564 27.9667 138.631 26.8888 132.647 30.385C133.546 25.272 136.019 22.909 133.338 17.948L136.102 16.5662Z" fill="#211624"/>
<path d="M87.0449 13.1114C86.6994 13.3878 84.3364 16.6076 84.2811 16.9116C82.6367 25.9491 92.9317 15.9028 100.864 24.8574C100.684 25.0785 101.306 26.8197 100.173 28.3122C90.1817 19.9932 76.1694 25.2306 83.5902 32.4578C83.5072 32.4578 84.0462 34.1161 82.5537 33.8397C72.314 23.3374 63.6496 36.8937 62.5164 36.6035C57.7074 27.5936 51.3508 36.5758 33.8423 28.3122C33.8423 21.0711 43.0456 17.1465 49.734 18.639C60.4021 21.0296 55.1648 31.5181 67.0075 22.4391L51.8068 17.2571C58.6609 10.1127 63.1521 9.7949 72.1896 14.4933C75.5476 9.80872 84.1014 6.60274 87.0449 13.1114Z" fill="#3C1932"/>
<path d="M33.1512 29.0031C38.1537 43.7616 48.0894 42.7667 48.352 43.8584C48.6975 45.8897 45.1322 50.9336 43.8609 51.8042C33.9804 58.5754 27.831 50.7263 21.4052 44.5493C20.4932 42.0343 19.512 39.3396 20.0233 36.6035C20.8801 32.0156 28.7983 28.6853 33.1512 29.0031Z" fill="#211624"/>
<path d="M100.173 28.3122C97.5612 32.3749 89.104 32.1953 83.5903 32.4578C76.1696 25.2306 90.1819 19.9932 100.173 28.3122Z" fill="#211624"/>
<path d="M132.647 30.385C138.631 26.8888 143.564 27.9667 144.048 27.6212C146.908 25.5899 138.424 18.6252 150.612 21.4028C160.755 26.2808 159.483 38.7316 160.285 48.004C153.68 56.8896 161.114 57.9122 149.23 71.1506C128.944 69.9346 101.873 66.3002 82.2084 70.4597C53.4376 68.0552 58.1222 80.5336 57.3345 103.625L55.2617 105.007L23.1328 118.135C21.4607 119.185 22.4142 122.073 22.7874 124.353C21.2949 125.473 21.5437 124.422 20.0236 123.662C16.1819 116.836 13.5978 110.659 14.496 102.589C6.75748 95.0711 -0.925798 83.8225 8.27756 74.2599C0.580456 69.1054 -2.80516 61.6709 2.75002 53.5316C-4.47724 44.0933 9.38307 33.6186 18.6417 34.5307C19.0977 35.194 19.1115 36.3271 20.0236 36.6035C19.5123 39.3396 20.4934 42.0343 21.4055 44.5493C27.8312 50.7264 33.9806 58.5755 43.8611 51.8042C45.1324 50.9336 48.6977 45.8898 48.3522 43.8584C48.0897 42.7667 38.1539 43.7617 33.1515 29.0031L33.8424 28.3122C51.3509 36.5759 57.7076 27.5936 62.5166 36.6035C63.6497 36.8937 72.3141 23.3374 82.5539 33.8397C84.0463 34.1161 83.5074 32.4578 83.5903 32.4578C89.104 32.1953 97.5612 32.3749 100.173 28.3122C101.306 26.8197 100.684 25.0786 100.864 24.8575C108.16 15.3639 113.923 21.0158 116.41 21.4028C119.271 21.8588 126.719 16.58 129.538 33.8397C132.177 32.1262 132.44 30.4956 132.647 30.385Z" fill="url(#paint1_linear_64_1035)"/>
<path d="M147.848 51.8043C147.889 51.9286 149.188 53.3796 149.92 53.5316C148.138 76.5538 140.344 59.5152 139.211 59.4046C138.202 59.3079 127.451 74.3981 127.465 57.3318C119.008 67.5577 99.2743 63.0666 98.0997 56.2954L96.3724 55.9499C88.8135 69.6168 69.9922 67.3919 67.6983 63.8957C63.8428 58.0089 72.6178 53.3381 72.8804 47.6586C78.6843 56.931 89.0899 56.1434 95.336 47.6586L101.209 54.568C116.52 41.3434 119.45 53.4211 120.555 53.8771C127.078 56.5994 131.389 44.7843 131.956 44.2039C132.011 44.1486 132.937 43.6926 133.338 43.5129L135.065 53.1861C142.32 49.3583 146.936 55.0379 147.848 51.8043Z" fill="#27142B"/>
<path d="M131.956 44.2038C131.39 44.7842 127.078 56.5994 120.556 53.877C119.45 53.421 116.521 41.3433 101.209 54.568L95.3364 47.6586C96.5525 46.0003 98.0173 39.3258 101.9 35.9125C114.02 49.455 119.395 30.0395 131.956 44.2038Z" fill="#10172B"/>
<path d="M147.848 51.8042C146.936 55.0378 142.321 49.3582 135.066 53.1861L133.338 43.5129C145.319 37.9992 147.171 49.6484 147.848 51.8042Z" fill="#211624"/>
<path d="M51.8067 17.2571L67.0075 22.4392C55.1647 31.5182 60.402 21.0297 49.7339 18.639C50.2175 16.884 51.7238 17.3539 51.8067 17.2571Z" fill="#211624"/>
<path d="M149.23 71.1506L151.302 85.6604C148.677 84.8036 139.971 82.8966 140.938 88.0787C141.298 89.9719 155.338 97.3788 156.83 100.861C156.056 100.723 154.716 100.626 154.757 101.552C127.81 95.9278 128.778 112.027 127.81 114.335C125.047 120.857 123.596 108.157 122.283 106.043C117.294 98.0283 98.9014 97.8901 90.4995 96.7155C98.6527 94.767 111.905 94.7256 105.355 87.7332C99.7167 81.7082 72.8252 81.9984 68.3894 100.861C66.6344 101.276 64.0226 102.354 62.1709 101.552C63.691 84.624 63.3455 74.4533 82.2082 70.4597C101.872 66.3002 128.944 69.9346 149.23 71.1506Z" fill="url(#paint2_linear_64_1035)"/>
<path d="M15.8774 121.589C12.1187 123.648 19.5947 131.276 20.714 133.681C21.2668 134.869 19.9816 135.657 20.0231 135.754C23.92 144.045 29.4061 151.618 33.842 159.591C31.4789 156.897 29.5028 154.078 27.278 151.3C-2.34962 155.791 -10.2125 114.362 15.8774 121.589Z" fill="#702E2E"/>
<path d="M103.627 201.048C103.475 201.642 103.807 202.609 103.627 203.121C99.1085 216.442 85.5937 218.46 75.2986 210.03C75.2157 209.975 74.9946 209.477 73.9167 208.648C67.6292 201.048 65.1141 202.803 67.6983 192.757C78.5599 199.196 91.4114 199.804 103.627 201.048Z" fill="#702E2E"/>
<path d="M104.318 198.284C104.65 199.887 103.807 200.343 103.627 201.048C91.4114 199.804 78.5599 199.196 67.6982 192.756C68.099 191.195 68.859 189.551 69.0801 187.92C69.8954 188.224 69.7434 186.4 70.1165 186.538C81.4065 190.628 92.13 194.525 103.973 196.902C104.567 197.027 104.249 198.27 104.318 198.284Z" fill="#491B1E"/>
<path d="M82.2079 70.4597C63.3452 74.4534 63.6907 84.624 62.1706 101.552L57.334 103.625C58.1217 80.5337 53.4371 68.0552 82.2079 70.4597Z" fill="#491B1E"/>
<path d="M135.41 122.971C136.005 123.621 136.544 124.187 136.792 125.044L135.41 130.572C133.241 127.559 131.666 124.091 128.156 122.28C123.816 127.849 121.73 144.874 130.574 147.154C126.401 151.77 109.984 148.218 113.3 153.373C109.859 152.35 102.494 147.527 100.172 144.391C122.78 139.886 120.182 125.763 122.973 120.553C123.388 119.793 125.475 120.94 125.046 118.826C128.225 119.019 133.324 120.677 135.41 122.971Z" fill="#702E2E"/>
<path d="M144.393 142.318C136.129 152.682 126.58 157.353 113.3 153.373C109.984 148.218 126.4 151.77 130.574 147.154C133.6 147.942 141.076 143.852 142.32 140.936C142.596 141.157 144.282 142.262 144.393 142.318Z" fill="#702E2E"/>
<path d="M52.4974 122.28C55.5238 132.382 53.5339 134.869 67.0072 140.936C78.6013 146.146 87.5006 146.919 100.172 144.391C102.494 147.527 109.859 152.35 113.3 153.373C126.58 157.353 136.129 152.682 144.393 142.318C147.046 143.658 148.345 143.506 150.266 144.391C153.527 143.672 161.1 145.137 161.666 145.081C162.675 166.003 148.248 189.772 127.81 196.211C121.454 198.215 110.91 199.459 104.318 198.284C104.249 198.284 104.567 197.027 103.973 196.902C92.1299 194.525 81.4065 190.628 70.1165 186.538C69.7434 186.4 69.8954 188.224 69.0801 187.92C53.1608 181.978 44.4411 171.669 33.842 159.591C29.4061 151.618 23.9201 144.045 20.0231 135.754C19.9817 135.657 21.2668 134.869 20.7141 133.681C19.5948 131.276 12.1188 123.648 15.8775 121.589C16.7343 121.824 18.8485 123.082 20.0231 123.662C21.5432 124.422 21.2945 125.473 22.7869 124.353C22.9804 125.5 23.1738 125.625 23.4779 126.426C24.155 128.222 24.763 129.715 25.8962 131.263C35.3759 124.326 50.2864 126.011 52.4974 120.898C52.5527 121.355 52.4007 121.949 52.4974 122.28Z" fill="url(#paint3_linear_64_1035)"/>
<path d="M131.265 172.028C124.59 180.237 108.919 176.45 104.318 169.264C96.6621 157.325 108.229 165.188 121.246 163.737C125.751 163.239 130.38 160.973 134.374 158.9C135.396 159.688 134.788 167.703 131.265 172.028Z" fill="#F9F9FA"/>
<path d="M131.265 172.028C133.835 184.852 104.65 181.577 104.318 169.264C108.92 176.45 124.591 180.237 131.265 172.028Z" fill="#D26357"/>
<path d="M50.7703 128.499C53.3406 127.753 53.7966 134.593 58.3706 138.172C60.2362 139.637 76.0588 144.736 63.2072 143.7C58.9787 143.354 44.3721 136.265 50.7703 128.499Z" fill="#702E2E"/>
<path d="M135.41 130.572C135.769 131.083 138.561 137.992 142.32 140.936C141.076 143.852 133.6 147.942 130.574 147.154C121.729 144.874 123.816 127.849 128.155 122.28C131.665 124.091 133.241 127.559 135.41 130.572Z" fill="#D26357"/>
<path d="M29.6967 295.707C30.8713 296.135 39.1073 304.316 49.0431 311.599C60.2916 319.835 98.0309 346.436 109.846 347.528C110.026 348.454 108.367 348.122 108.464 348.564C108.823 350.264 135.052 364.221 138.866 365.492C153.914 367.537 168.59 371.407 183.086 375.856C182.975 375.87 182.74 377.404 181.359 377.238C178.526 375.497 175.817 375.594 172.722 375.165C162.537 373.728 152.643 371.365 142.666 368.947C138.451 368.477 138.396 369.665 138.175 369.638C129.925 368.477 121.979 368.961 113.646 366.874C104.042 364.47 95.6679 358.348 87.0449 353.746C85.6492 353 84.3088 351.729 82.8993 350.982C77.4546 348.08 71.6231 345.109 66.3166 342C57.4173 336.79 41.5256 329.466 34.5333 322.654C28.7294 317.002 20.673 302.893 18.6416 295.016C21.9305 299.314 24.943 293.966 29.6967 295.707Z" fill="#702E2E"/>
<path d="M49.734 287.416V288.107C48.9186 288.728 48.3383 288.604 47.6611 288.798C41.6776 290.483 30.5534 293.233 29.6966 295.707C24.9429 293.966 21.9304 299.314 18.6415 295.016C18.3928 294.021 16.8865 291.755 17.6051 290.87C20.8802 289.931 24.2796 289.433 27.6238 288.798C30.0559 288.342 45.0079 286.048 45.9338 286.034C50.3005 285.979 49.5405 287.36 49.734 287.416Z" fill="#491B1E"/>
<path d="M58.0252 300.544C63.3455 307.066 80.3565 324.782 86.3539 329.563C86.4506 329.632 87.0586 331.387 87.3903 331.636C87.4732 331.705 89.3664 330.89 89.4631 330.945C101.638 339.195 99.3574 337.537 112.61 342C116.562 343.327 117.35 341.06 122.974 346.146C119.768 346.533 111.573 347.694 109.846 347.528C98.0308 346.436 60.2915 319.835 49.043 311.599C47.9513 307.812 34.2153 297.517 36.2605 294.325C37.0758 293.054 47.744 292.073 47.6611 288.798C48.3382 288.604 48.9186 288.728 49.7339 288.107C50.5768 292.404 55.1923 297.061 58.0252 300.544Z" fill="#A85048"/>
<path d="M122.974 346.146C125.392 348.343 125.033 350.554 127.119 350.291C130.795 355.543 134.443 360.808 138.866 365.492C135.052 364.221 108.823 350.264 108.464 348.564C108.367 348.122 110.026 348.454 109.846 347.528C111.573 347.693 119.768 346.533 122.974 346.146Z" fill="#702E2E"/>
<path d="M49.0432 311.599C39.1074 304.316 30.8714 296.135 29.6968 295.707C30.5535 293.233 41.6777 290.483 47.6613 288.798C47.7442 292.073 37.076 293.054 36.2607 294.325C34.2155 297.517 47.9515 307.812 49.0432 311.599Z" fill="#903C3C"/>
<path d="M127.119 350.291C125.033 350.554 125.392 348.343 122.974 346.146C117.349 341.06 116.562 343.327 112.609 342C124.549 337.758 125.364 347.79 127.119 350.291Z" fill="#B5624C"/>
<path d="M55.2616 105.007C54.4877 110.811 53.5757 117.347 52.4978 122.28C52.4011 121.949 52.5531 121.355 52.4978 120.899L50.7705 119.517L23.4782 126.426C23.1742 125.625 22.9807 125.5 22.7873 124.353C22.4142 122.073 21.4607 119.185 23.1327 118.135L55.2616 105.007Z" fill="#F0A220"/>
<path d="M73.9173 100.17C72.411 104.136 57.9289 104.426 62.1712 106.389C54.3498 114.514 61.0243 132.603 67.0078 140.936C53.5345 134.869 55.5244 132.382 52.498 122.28C53.5759 117.347 54.488 110.811 55.2618 105.007L57.3346 103.625L62.1712 101.552C64.023 102.354 66.6347 101.276 68.3897 100.861C68.9978 100.723 70.9048 100.889 73.9173 100.17Z" fill="#EFBA1C"/>
<path d="M52.4976 120.898C50.2866 126.011 35.3761 124.326 25.8963 131.263C24.7632 129.715 24.1552 128.222 23.478 126.426L50.7703 119.517L52.4976 120.898Z" fill="#26171B"/>
<path d="M154.757 101.552C164.209 103.528 152.864 102.271 143.702 104.316C142.251 104.634 139.308 105.076 138.174 105.698C132.039 109.07 133.379 114.97 135.411 120.899C135.411 120.995 136.917 120.774 135.411 122.971C133.324 120.677 128.225 119.019 125.047 118.826C124.784 118.812 122.642 119.282 120.901 119.517C120.431 109.304 116.175 104.205 106.046 102.934C102.646 102.506 87.2243 102.381 87.7356 104.316C73.4746 104.482 67.1732 106.278 64.2436 106.389C63.5527 106.416 62.8617 106.375 62.1708 106.389C57.9284 104.426 72.4105 104.136 73.9168 100.17C79.3752 98.8713 84.9857 98.0283 90.4994 96.7155C98.9013 97.8901 117.294 98.0283 122.283 106.043C123.596 108.158 125.047 120.857 127.81 114.335C128.778 112.027 127.81 95.9278 154.757 101.552Z" fill="#D7A429"/>
<path d="M64.2439 106.389C62.102 108.807 61.1208 110.728 60.7892 113.989C60.264 119.005 61.5077 120.484 62.171 122.971C65.8192 136.694 73.3505 141.24 87.045 141.627C90.8452 141.737 93.6504 141.585 97.4091 140.936C109.722 138.822 118.082 132.921 117.446 119.517C121.302 120.94 120.735 119.544 120.901 119.517C122.642 119.282 124.784 118.812 125.047 118.826C125.475 120.94 123.389 119.793 122.974 120.553C120.183 125.763 122.781 139.886 100.173 144.391C87.501 146.919 78.6017 146.146 67.0076 140.936C61.0241 132.603 54.3496 114.514 62.171 106.389C62.862 106.375 63.5529 106.416 64.2439 106.389Z" fill="#422529"/>
<path d="M117.446 119.517C118.082 132.921 109.722 138.822 97.409 140.936C97.2708 138.628 104.056 139.761 109.501 134.717C119.478 125.473 115.318 106.444 109.501 107.771C107.511 108.227 89.1315 137.84 87.0449 141.627C73.3504 141.24 65.8191 136.693 62.1709 122.971C64.0089 120.525 65.0038 113.188 60.7891 113.989C61.1207 110.728 62.1019 108.807 64.2438 106.389C67.1734 106.278 73.4748 104.482 87.7358 104.316C101.693 104.15 116.59 101.469 117.446 119.517Z" fill="#F9F9FA"/>
<path d="M97.4091 140.936C93.6503 141.585 90.8451 141.737 87.0449 141.627C89.1316 137.84 107.511 108.227 109.501 107.771C115.318 106.444 119.478 125.473 109.501 134.717C104.056 139.761 97.2709 138.628 97.4091 140.936Z" fill="#C2BD92"/>
<path d="M120.901 119.517C120.735 119.544 121.302 120.94 117.447 119.517C116.59 101.469 101.693 104.15 87.7361 104.316C87.2248 102.381 102.647 102.506 106.046 102.934C116.175 104.205 120.431 109.305 120.901 119.517Z" fill="#58423C"/>
<path d="M62.171 122.971C61.5077 120.484 60.264 119.005 60.7891 113.989C65.0039 113.188 64.0089 120.525 62.171 122.971Z" fill="#EACF39"/>
<path d="M156.83 100.861C157.258 100.93 157.451 101.386 159.593 101.552C167.263 102.16 184.785 101.179 188.613 108.807C192.703 116.946 187.618 134.137 179.976 138.863C179.064 139.43 177.834 138.02 177.558 138.172C177.655 137.509 177.406 136.652 177.558 136.099C177.959 134.676 188.254 124.035 184.467 112.262C181.925 104.371 175.167 106.209 169.957 105.698C161.183 104.827 152.449 105.325 143.702 104.316C152.864 102.271 164.209 103.528 154.757 101.552C154.715 100.626 156.056 100.723 156.83 100.861Z" fill="#EACF39"/>
<path d="M158.903 141.627C165.757 141.419 171.229 138.117 177.558 136.099C177.406 136.652 177.655 137.509 177.558 138.172C177.213 138.352 173.703 141.489 170.994 142.318C169.598 142.746 162.15 145.04 161.666 145.081C161.1 145.137 153.527 143.672 150.266 144.391C148.345 143.506 147.046 143.658 144.393 142.318C144.282 142.262 142.596 141.157 142.32 140.936C138.561 137.992 135.77 131.083 135.411 130.572L136.793 125.044C139.404 136.141 147.668 141.972 158.903 141.627Z" fill="#312C2D"/>
<path d="M143.702 104.316C152.449 105.325 161.183 104.827 169.958 105.698C170.773 107.301 175.264 105.836 177.213 106.389C187.356 109.249 181.013 122.405 174.104 122.28C178.07 97.9868 168.037 119.613 159.594 138.863C159.193 139.789 158.626 140.273 158.903 141.627C147.668 141.972 139.404 136.141 136.793 125.044C136.544 124.187 136.005 123.621 135.411 122.971C136.917 120.774 135.411 120.995 135.411 120.898C135.01 115.703 134.637 109.83 138.175 105.698C139.308 105.076 142.251 104.634 143.702 104.316Z" fill="#F9F9FA"/>
<path d="M177.558 136.099C171.229 138.117 165.757 141.419 158.903 141.627C158.626 140.273 159.193 139.789 159.594 138.863C168.175 143.561 172.957 129.259 174.104 122.28C181.013 122.405 187.356 109.249 177.213 106.389C175.264 105.836 170.773 107.301 169.958 105.698C175.168 106.209 181.925 104.371 184.468 112.262C188.254 124.035 177.959 134.676 177.558 136.099Z" fill="#D1CECD"/>
<path d="M138.174 105.698C134.637 109.83 135.01 115.703 135.411 120.898C133.379 114.97 132.039 109.07 138.174 105.698Z" fill="#8E6A38"/>
<path d="M174.104 122.28C172.957 129.259 168.175 143.561 159.594 138.863C168.037 119.613 178.07 97.9868 174.104 122.28Z" fill="#D9D0AC"/>
</g>
<defs>
<linearGradient id="paint0_linear_64_1035" x1="20.6037" y1="456.365" x2="65.6255" y2="469.811" gradientUnits="userSpaceOnUse">
<stop stop-color="#1A2E58"/>
<stop offset="1" stop-color="#005385"/>
</linearGradient>
<linearGradient id="paint1_linear_64_1035" x1="123.154" y1="10.8728" x2="21.3502" y2="109.36" gradientUnits="userSpaceOnUse">
<stop stop-color="#33172E"/>
<stop offset="1" stop-color="#111016"/>
</linearGradient>
<linearGradient id="paint2_linear_64_1035" x1="138.119" y1="90.4417" x2="82.305" y2="94.6012" gradientUnits="userSpaceOnUse">
<stop stop-color="#C36F53"/>
<stop offset="1" stop-color="#B25C49"/>
</linearGradient>
<linearGradient id="paint3_linear_64_1035" x1="150.501" y1="140.134" x2="36.2603" y2="167.454" gradientUnits="userSpaceOnUse">
<stop stop-color="#BB624F"/>
<stop offset="1" stop-color="#782C2C"/>
</linearGradient>
<clipPath id="clip0_64_1035">
<rect width="285" height="619.541" fill="white" transform="translate(0 0.729736)"/>
</clipPath>
</defs>
</svg>
