<svg width="169" height="24" viewBox="0 0 169 24" fill="none" xmlns="http://www.w3.org/2000/svg">
<path d="M16.8133 1.72161L13.9791 7.46813L7.63799 8.39261C6.50083 8.55754 6.04511 9.95945 6.86976 10.7624L11.4574 15.2329L10.3724 21.548C10.177 22.6895 11.3793 23.5445 12.3863 23.0107L18.059 20.0289L23.7317 23.0107C24.7387 23.5402 25.9409 22.6895 25.7456 21.548L24.6606 15.2329L29.2482 10.7624C30.0729 9.95945 29.6172 8.55754 28.48 8.39261L22.1389 7.46813L19.3047 1.72161C18.7968 0.6973 17.3255 0.68428 16.8133 1.72161Z" fill="url(#paint0_linear_85_514)"/>
<path d="M50.034 1.72161L47.1998 7.46813L40.8587 8.39261C39.7215 8.55754 39.2658 9.95945 40.0905 10.7624L44.6781 15.2329L43.5931 21.548C43.3978 22.6895 44.6 23.5445 45.607 23.0107L51.2797 20.0289L56.9524 23.0107C57.9594 23.5402 59.1616 22.6895 58.9663 21.548L57.8813 15.2329L62.4689 10.7624C63.2936 9.95945 62.8379 8.55754 61.7007 8.39261L55.3596 7.46813L52.5254 1.72161C52.0175 0.6973 50.5462 0.68428 50.034 1.72161Z" fill="url(#paint1_linear_85_514)"/>
<path d="M83.2543 1.72161L80.4201 7.46813L74.0789 8.39261C72.9418 8.55754 72.486 9.95945 73.3107 10.7624L77.8983 15.2329L76.8133 21.548C76.618 22.6895 77.8202 23.5445 78.8272 23.0107L84.4999 20.0289L90.1727 23.0107C91.1796 23.5402 92.3819 22.6895 92.1865 21.548L91.1015 15.2329L95.6891 10.7624C96.5138 9.95945 96.0581 8.55754 94.9209 8.39261L88.5798 7.46813L85.7456 1.72161C85.2378 0.6973 83.7664 0.68428 83.2543 1.72161Z" fill="url(#paint2_linear_85_514)"/>
<path d="M116.475 1.72161L113.641 7.46813L107.3 8.39261C106.162 8.55754 105.707 9.95945 106.531 10.7624L111.119 15.2329L110.034 21.548C109.839 22.6895 111.041 23.5445 112.048 23.0107L117.721 20.0289L123.393 23.0107C124.4 23.5402 125.603 22.6895 125.407 21.548L124.322 15.2329L128.91 10.7624C129.735 9.95945 129.279 8.55754 128.142 8.39261L121.8 7.46813L118.966 1.72161C118.458 0.6973 116.987 0.68428 116.475 1.72161Z" fill="url(#paint3_linear_85_514)"/>
<path d="M149.696 1.72161L146.861 7.46813L140.52 8.39261C139.383 8.55754 138.927 9.95945 139.752 10.7624L144.34 15.2329L143.255 21.548C143.059 22.6895 144.262 23.5445 145.269 23.0107L150.941 20.0289L156.614 23.0107C157.621 23.5402 158.823 22.6895 158.628 21.548L157.543 15.2329L162.131 10.7624C162.955 9.95945 162.499 8.55754 161.362 8.39261L155.021 7.46813L152.187 1.72161C151.679 0.6973 150.208 0.68428 149.696 1.72161Z" fill="url(#paint4_linear_85_514)"/>
<defs>
<linearGradient id="paint0_linear_85_514" x1="29.6693" y1="14.3251" x2="11.9272" y2="4.46614" gradientUnits="userSpaceOnUse">
<stop offset="0.0001" stop-color="#81B9DE"/>
<stop offset="0.484375" stop-color="#4A4992"/>
<stop offset="1" stop-color="#414052"/>
</linearGradient>
<linearGradient id="paint1_linear_85_514" x1="62.89" y1="14.3251" x2="45.1479" y2="4.46614" gradientUnits="userSpaceOnUse">
<stop offset="0.0001" stop-color="#81B9DE"/>
<stop offset="0.484375" stop-color="#4A4992"/>
<stop offset="1" stop-color="#414052"/>
</linearGradient>
<linearGradient id="paint2_linear_85_514" x1="96.1102" y1="14.3251" x2="78.3681" y2="4.46614" gradientUnits="userSpaceOnUse">
<stop offset="0.0001" stop-color="#81B9DE"/>
<stop offset="0.484375" stop-color="#4A4992"/>
<stop offset="1" stop-color="#414052"/>
</linearGradient>
<linearGradient id="paint3_linear_85_514" x1="129.331" y1="14.3251" x2="111.589" y2="4.46614" gradientUnits="userSpaceOnUse">
<stop offset="0.0001" stop-color="#81B9DE"/>
<stop offset="0.484375" stop-color="#4A4992"/>
<stop offset="1" stop-color="#414052"/>
</linearGradient>
<linearGradient id="paint4_linear_85_514" x1="162.552" y1="14.3251" x2="144.81" y2="4.46614" gradientUnits="userSpaceOnUse">
<stop offset="0.0001" stop-color="#81B9DE"/>
<stop offset="0.484375" stop-color="#4A4992"/>
<stop offset="1" stop-color="#414052"/>
</linearGradient>
</defs>
</svg>
